# xmcd CD database file
#
# Track frame offsets:
#	150
#	39458
#	69514
#	104751
#	140732
#	189001
#	202416
#	236007
#
# Disc length: 3638 seconds
#
# Revision: 0
# Processed by: cddbd v1.5.1PL0 Copyright (c) Steve Scherf et al.
# Submitted via: CDex 1.51
#
DISCID=790e3408
DTITLE=Adam Rogers Quintet - Apparition
DYEAR=2005
DGENRE=Jazz
TTITLE0=Labyrinth
TTITLE1=Tyranny Of Fixed Numbers
TTITLE2=Persephone
TTITLE3=Continuance
TTITLE4=The Maya
TTITLE5=Appartitions
TTITLE6=Amphora
TTITLE7=Moment In Time
EXTD=YEAR: 2005
EXTT0=
EXTT1=
EXTT2=
EXTT3=
EXTT4=
EXTT5=
EXTT6=
EXTT7=
PLAYORDER=
